<svg width="383" height="819" viewBox="0 0 383 819" fill="none" xmlns="http://www.w3.org/2000/svg">
<path fill-rule="evenodd" clip-rule="evenodd" d="M699.276 285.914C741.071 258.329 828.906 269.646 867.599 278.752L949 709.337L699.639 670.198C699.639 670.198 514.582 753.662 420.582 793.162C326.583 832.662 268.517 826.555 219.491 764.171C170.465 701.788 232.286 682.254 251.439 552.17C265.249 458.379 185.437 389.296 112.301 325.992C42.1253 265.251 -21.9028 209.831 8.82227 143.01C124.372 -108.288 718 8.61347 674.292 220.5C673.647 223.628 672.836 227.2 671.963 231.049C664.523 263.853 652.519 316.774 699.276 285.914Z" fill="#FFF1DA"/>
</svg>
