<svg width="157" height="50" viewBox="0 0 157 50" fill="none" xmlns="http://www.w3.org/2000/svg">
<path d="M9.6 40V18H1.28V12H24.92V18H16.4V40H9.6ZM26.6681 40V18.76H32.7481L33.0281 25.68L31.8281 24.36C32.1481 23.2133 32.6681 22.1867 33.3881 21.28C34.1348 20.3733 35.0015 19.6533 35.9881 19.12C36.9748 18.5867 38.0281 18.32 39.1481 18.32C39.6281 18.32 40.0681 18.36 40.4681 18.44C40.8948 18.52 41.2815 18.6133 41.6281 18.72L39.8681 25.8C39.5748 25.6133 39.1748 25.4667 38.6681 25.36C38.1881 25.2267 37.6815 25.16 37.1481 25.16C36.5615 25.16 36.0148 25.2667 35.5081 25.48C35.0015 25.6667 34.5748 25.9467 34.2281 26.32C33.8815 26.6933 33.6015 27.1333 33.3881 27.64C33.2015 28.1467 33.1081 28.72 33.1081 29.36V40H26.6681ZM51.8128 40.36C50.0261 40.36 48.4261 39.8933 47.0128 38.96C45.6261 38 44.5195 36.6933 43.6928 35.04C42.8661 33.36 42.4528 31.4667 42.4528 29.36C42.4528 27.2 42.8661 25.2933 43.6928 23.64C44.5195 21.9867 45.6528 20.6933 47.0928 19.76C48.5328 18.8 50.1728 18.32 52.0128 18.32C53.0261 18.32 53.9461 18.4667 54.7728 18.76C55.6261 19.0533 56.3728 19.4667 57.0128 20C57.6528 20.5067 58.1995 21.1067 58.6528 21.8C59.1061 22.4667 59.4395 23.1867 59.6528 23.96L58.3328 23.8V18.76H64.6928V40H58.2128V34.88L59.6528 34.84C59.4395 35.5867 59.0928 36.2933 58.6128 36.96C58.1328 37.6267 57.5461 38.2133 56.8528 38.72C56.1595 39.2267 55.3861 39.6267 54.5328 39.92C53.6795 40.2133 52.7728 40.36 51.8128 40.36ZM53.5728 34.96C54.5595 34.96 55.4128 34.7333 56.1328 34.28C56.8528 33.8267 57.4128 33.1867 57.8128 32.36C58.2128 31.5067 58.4128 30.5067 58.4128 29.36C58.4128 28.2133 58.2128 27.2267 57.8128 26.4C57.4128 25.5467 56.8528 24.8933 56.1328 24.44C55.4128 23.96 54.5595 23.72 53.5728 23.72C52.6128 23.72 51.7728 23.96 51.0528 24.44C50.3595 24.8933 49.8128 25.5467 49.4128 26.4C49.0128 27.2267 48.8128 28.2133 48.8128 29.36C48.8128 30.5067 49.0128 31.5067 49.4128 32.36C49.8128 33.1867 50.3595 33.8267 51.0528 34.28C51.7728 34.7333 52.6128 34.96 53.5728 34.96ZM76.3913 40L67.5113 18.76H74.5913L79.8713 34.64L78.3113 34.8L83.7513 18.76H90.7513L81.4313 40H76.3913ZM94.45 40V18.76H100.85V40H94.45ZM97.65 14.56C96.45 14.56 95.5033 14.28 94.81 13.72C94.1433 13.1333 93.81 12.3067 93.81 11.24C93.81 10.28 94.1567 9.49333 94.85 8.88C95.5433 8.26666 96.4767 7.96 97.65 7.96C98.85 7.96 99.7833 8.25333 100.45 8.84C101.117 9.4 101.45 10.2 101.45 11.24C101.45 12.2267 101.103 13.0267 100.41 13.64C99.7433 14.2533 98.8233 14.56 97.65 14.56ZM116.583 49.2C114.85 49.2 113.117 48.9467 111.383 48.44C109.677 47.9333 108.29 47.28 107.223 46.48L109.463 42C110.023 42.3733 110.637 42.6933 111.303 42.96C111.997 43.2533 112.717 43.48 113.463 43.64C114.21 43.8 114.97 43.88 115.743 43.88C117.103 43.88 118.21 43.68 119.063 43.28C119.917 42.88 120.557 42.2667 120.983 41.44C121.41 40.64 121.623 39.6267 121.623 38.4V34.84L122.863 35.04C122.677 35.92 122.21 36.72 121.463 37.44C120.743 38.16 119.85 38.7467 118.783 39.2C117.717 39.6267 116.583 39.84 115.383 39.84C113.463 39.84 111.743 39.4 110.223 38.52C108.73 37.6133 107.543 36.3733 106.663 34.8C105.81 33.2 105.383 31.36 105.383 29.28C105.383 27.1467 105.81 25.2667 106.663 23.64C107.517 21.9867 108.69 20.6933 110.183 19.76C111.677 18.8 113.357 18.32 115.223 18.32C116.023 18.32 116.783 18.4133 117.503 18.6C118.25 18.7867 118.93 19.04 119.543 19.36C120.183 19.6533 120.743 20.0133 121.223 20.44C121.73 20.84 122.13 21.28 122.423 21.76C122.743 22.24 122.957 22.7333 123.063 23.24L121.743 23.56L121.983 18.76H128.063V38.28C128.063 40.0133 127.797 41.5467 127.263 42.88C126.757 44.24 125.997 45.3867 124.983 46.32C123.997 47.28 122.797 48 121.383 48.48C119.97 48.96 118.37 49.2 116.583 49.2ZM116.743 34.88C117.783 34.88 118.677 34.6533 119.423 34.2C120.197 33.72 120.783 33.0667 121.183 32.24C121.61 31.4133 121.823 30.44 121.823 29.32C121.823 28.2 121.61 27.2267 121.183 26.4C120.783 25.5467 120.197 24.8933 119.423 24.44C118.677 23.96 117.783 23.72 116.743 23.72C115.73 23.72 114.85 23.96 114.103 24.44C113.357 24.8933 112.77 25.5467 112.343 26.4C111.943 27.2267 111.743 28.2 111.743 29.32C111.743 30.44 111.943 31.4133 112.343 32.24C112.77 33.0667 113.357 33.72 114.103 34.2C114.85 34.6533 115.73 34.88 116.743 34.88ZM143.621 40.4C141.408 40.4 139.435 39.92 137.701 38.96C135.995 38 134.635 36.6933 133.621 35.04C132.635 33.3867 132.141 31.4933 132.141 29.36C132.141 27.2267 132.635 25.3333 133.621 23.68C134.635 22.0267 135.995 20.72 137.701 19.76C139.435 18.8 141.408 18.32 143.621 18.32C145.835 18.32 147.795 18.8 149.501 19.76C151.235 20.72 152.595 22.0267 153.581 23.68C154.568 25.3333 155.061 27.2267 155.061 29.36C155.061 31.4933 154.568 33.3867 153.581 35.04C152.595 36.6933 151.235 38 149.501 38.96C147.795 39.92 145.835 40.4 143.621 40.4ZM143.621 34.88C144.581 34.88 145.435 34.64 146.181 34.16C146.928 33.68 147.515 33.0267 147.941 32.2C148.368 31.3733 148.568 30.4267 148.541 29.36C148.568 28.2933 148.368 27.3467 147.941 26.52C147.515 25.6667 146.928 25 146.181 24.52C145.435 24.04 144.581 23.8 143.621 23.8C142.661 23.8 141.795 24.04 141.021 24.52C140.275 25 139.688 25.6667 139.261 26.52C138.835 27.3467 138.635 28.2933 138.661 29.36C138.635 30.4267 138.835 31.3733 139.261 32.2C139.688 33.0267 140.275 33.68 141.021 34.16C141.795 34.64 142.661 34.88 143.621 34.88Z" fill="black"/>
</svg>
