<svg width="61" height="61" viewBox="0 0 61 61" fill="none" xmlns="http://www.w3.org/2000/svg">
<g filter="url(#filter0_d_2864_6)">
<path fill-rule="evenodd" clip-rule="evenodd" d="M30.5 49C41.8218 49 51 39.8218 51 28.5C51 17.1782 41.8218 8 30.5 8C19.1782 8 10 17.1782 10 28.5C10 39.8218 19.1782 49 30.5 49Z" fill="white"/>
</g>
<path fill-rule="evenodd" clip-rule="evenodd" d="M33.5371 24.2445C33.217 24.1432 32.8489 24.0757 32.5129 24.0757C32.0968 24.0757 31.2006 24.3626 31.2006 24.9195V26.2527H33.329V28.4971H31.2006V34.6905H29.0562V28.4971H28V26.2527H29.0562V25.122C29.0562 23.4176 29.7923 22 31.5687 22C32.1768 22 33.265 22.0338 33.8571 22.2531L33.5371 24.2445Z" fill="#080809"/>
<defs>
<filter id="filter0_d_2864_6" x="0" y="0" width="61" height="61" filterUnits="userSpaceOnUse" color-interpolation-filters="sRGB">
<feFlood flood-opacity="0" result="BackgroundImageFix"/>
<feColorMatrix in="SourceAlpha" type="matrix" values="0 0 0 0 0 0 0 0 0 0 0 0 0 0 0 0 0 0 127 0" result="hardAlpha"/>
<feOffset dy="2"/>
<feGaussianBlur stdDeviation="5"/>
<feColorMatrix type="matrix" values="0 0 0 0 0 0 0 0 0 0 0 0 0 0 0 0 0 0 0.1 0"/>
<feBlend mode="normal" in2="BackgroundImageFix" result="effect1_dropShadow_2864_6"/>
<feBlend mode="normal" in="SourceGraphic" in2="effect1_dropShadow_2864_6" result="shape"/>
</filter>
</defs>
</svg>
