<svg width="174" height="46" viewBox="0 0 174 46" fill="none" xmlns="http://www.w3.org/2000/svg">
<path d="M22.056 3.42V7.512H13.916V34H8.9V7.512H0.716V3.42H22.056ZM32.1519 13.276C32.8853 12.044 33.8533 11.0907 35.0559 10.416C36.2879 9.712 37.7399 9.36 39.4119 9.36V14.552H38.1359C36.1706 14.552 34.6746 15.0507 33.6479 16.048C32.6506 17.0453 32.1519 18.776 32.1519 21.24V34H27.1359V9.756H32.1519V13.276ZM42.3507 21.768C42.3507 19.3333 42.8493 17.1773 43.8467 15.3C44.8733 13.4227 46.252 11.9707 47.9827 10.944C49.7427 9.888 51.6787 9.36 53.7907 9.36C55.6973 9.36 57.3547 9.74133 58.7627 10.504C60.2 11.2373 61.344 12.1613 62.1947 13.276V9.756H67.2547V34H62.1947V30.392C61.344 31.536 60.1853 32.4893 58.7187 33.252C57.252 34.0147 55.58 34.396 53.7027 34.396C51.62 34.396 49.7133 33.868 47.9827 32.812C46.252 31.7267 44.8733 30.2307 43.8467 28.324C42.8493 26.388 42.3507 24.2027 42.3507 21.768ZM62.1947 21.856C62.1947 20.184 61.8427 18.732 61.1387 17.5C60.464 16.268 59.5693 15.3293 58.4547 14.684C57.34 14.0387 56.1373 13.716 54.8467 13.716C53.556 13.716 52.3533 14.0387 51.2387 14.684C50.124 15.3 49.2147 16.224 48.5107 17.456C47.836 18.6587 47.4987 20.096 47.4987 21.768C47.4987 23.44 47.836 24.9067 48.5107 26.168C49.2147 27.4293 50.124 28.3973 51.2387 29.072C52.3827 29.7173 53.5853 30.04 54.8467 30.04C56.1373 30.04 57.34 29.7173 58.4547 29.072C59.5693 28.4267 60.464 27.488 61.1387 26.256C61.8427 24.9947 62.1947 23.528 62.1947 21.856ZM83.215 29.512L90.079 9.756H95.403L86.163 34H80.179L70.983 9.756H76.351L83.215 29.512ZM101.747 6.544C100.837 6.544 100.075 6.236 99.4585 5.62C98.8425 5.004 98.5345 4.24133 98.5345 3.332C98.5345 2.42266 98.8425 1.66 99.4585 1.044C100.075 0.427999 100.837 0.119998 101.747 0.119998C102.627 0.119998 103.375 0.427999 103.991 1.044C104.607 1.66 104.915 2.42266 104.915 3.332C104.915 4.24133 104.607 5.004 103.991 5.62C103.375 6.236 102.627 6.544 101.747 6.544ZM104.211 9.756V34H99.1945V9.756H104.211ZM120.564 9.36C122.441 9.36 124.099 9.74133 125.536 10.504C127.003 11.2373 128.147 12.1613 128.968 13.276V9.756H134.028V34.396C134.028 36.6253 133.559 38.6053 132.62 40.336C131.681 42.096 130.317 43.4747 128.528 44.472C126.768 45.4693 124.656 45.968 122.192 45.968C118.907 45.968 116.179 45.1907 114.008 43.636C111.837 42.1107 110.605 40.028 110.312 37.388H115.284C115.665 38.6493 116.472 39.6613 117.704 40.424C118.965 41.216 120.461 41.612 122.192 41.612C124.216 41.612 125.844 40.996 127.076 39.764C128.337 38.532 128.968 36.7427 128.968 34.396V30.348C128.117 31.492 126.959 32.46 125.492 33.252C124.055 34.0147 122.412 34.396 120.564 34.396C118.452 34.396 116.516 33.868 114.756 32.812C113.025 31.7267 111.647 30.2307 110.62 28.324C109.623 26.388 109.124 24.2027 109.124 21.768C109.124 19.3333 109.623 17.1773 110.62 15.3C111.647 13.4227 113.025 11.9707 114.756 10.944C116.516 9.888 118.452 9.36 120.564 9.36ZM128.968 21.856C128.968 20.184 128.616 18.732 127.912 17.5C127.237 16.268 126.343 15.3293 125.228 14.684C124.113 14.0387 122.911 13.716 121.62 13.716C120.329 13.716 119.127 14.0387 118.012 14.684C116.897 15.3 115.988 16.224 115.284 17.456C114.609 18.6587 114.272 20.096 114.272 21.768C114.272 23.44 114.609 24.9067 115.284 26.168C115.988 27.4293 116.897 28.3973 118.012 29.072C119.156 29.7173 120.359 30.04 121.62 30.04C122.911 30.04 124.113 29.7173 125.228 29.072C126.343 28.4267 127.237 27.488 127.912 26.256C128.616 24.9947 128.968 23.528 128.968 21.856ZM151.132 34.396C148.844 34.396 146.776 33.8827 144.928 32.856C143.08 31.8 141.628 30.3333 140.572 28.456C139.516 26.5493 138.988 24.3493 138.988 21.856C138.988 19.392 139.531 17.2067 140.616 15.3C141.702 13.3933 143.183 11.9267 145.06 10.9C146.938 9.87333 149.035 9.36 151.352 9.36C153.67 9.36 155.767 9.87333 157.644 10.9C159.522 11.9267 161.003 13.3933 162.088 15.3C163.174 17.2067 163.716 19.392 163.716 21.856C163.716 24.32 163.159 26.5053 162.044 28.412C160.93 30.3187 159.404 31.8 157.468 32.856C155.562 33.8827 153.45 34.396 151.132 34.396ZM151.132 30.04C152.423 30.04 153.626 29.732 154.74 29.116C155.884 28.5 156.808 27.576 157.512 26.344C158.216 25.112 158.568 23.616 158.568 21.856C158.568 20.096 158.231 18.6147 157.556 17.412C156.882 16.18 155.987 15.256 154.872 14.64C153.758 14.024 152.555 13.716 151.264 13.716C149.974 13.716 148.771 14.024 147.656 14.64C146.571 15.256 145.706 16.18 145.06 17.412C144.415 18.6147 144.092 20.096 144.092 21.856C144.092 24.4667 144.752 26.4907 146.072 27.928C147.422 29.336 149.108 30.04 151.132 30.04ZM170.699 34.308C169.79 34.308 169.027 34 168.411 33.384C167.795 32.768 167.487 32.0053 167.487 31.096C167.487 30.1867 167.795 29.424 168.411 28.808C169.027 28.192 169.79 27.884 170.699 27.884C171.579 27.884 172.327 28.192 172.943 28.808C173.559 29.424 173.867 30.1867 173.867 31.096C173.867 32.0053 173.559 32.768 172.943 33.384C172.327 34 171.579 34.308 170.699 34.308Z" fill="#181E4B"/>
</svg>
