<svg width="598" height="590" viewBox="0 0 598 590" fill="none" xmlns="http://www.w3.org/2000/svg">
<g clip-path="url(#clip0_2736_1422)">
<rect width="694" height="894" transform="translate(-96 -304)" fill="white"/>
<g clip-path="url(#clip1_2736_1422)">
<rect x="-173" y="-28" width="535" height="535" rx="267.5" fill="#FEF0DA"/>
<path d="M91.1746 325.847C89.8163 326.151 88.4933 326.715 87.2877 327.502C84.1469 329.504 82.3196 332.36 83.2066 333.883C84.0935 335.405 87.3586 335.015 90.4993 333.014C91.7211 332.255 92.8065 331.284 93.6887 330.162C94.0981 329.62 94.1715 328.944 93.8763 328.439L92.7241 326.462C92.431 325.955 91.8229 325.714 91.1746 325.847Z" fill="#D5D6DB"/>
<path d="M83.2875 298.854C82.3025 299.075 81.3431 299.484 80.4688 300.055C78.192 301.506 76.8662 303.577 77.5088 304.68C78.1514 305.783 80.5199 305.5 82.7965 304.049C83.6824 303.498 84.4693 302.794 85.1091 301.98C85.4056 301.587 85.4587 301.098 85.2447 300.732L84.4105 299.3C84.1982 298.933 83.7576 298.758 83.2875 298.854Z" fill="#D5D6DB"/>
<path d="M70.4735 299.985C70.2543 299.96 70.0204 300.019 69.8177 300.148L64.4695 303.556C64.0221 303.84 63.8431 304.388 64.0701 304.779C64.122 304.869 64.193 304.945 64.2792 305.004L77.4609 314.089L95.2943 302.724L70.4735 299.985Z" fill="#029BC5"/>
<path d="M126.85 298.7L78.3184 329.252L49.6056 340.677L34.9625 343.588L33.3516 340.851L114.247 290.904C116.657 289.409 119.343 288.492 122.032 288.245C123.209 288.143 124.372 288.182 125.493 288.361C126.487 288.512 127.43 288.802 128.294 289.224C129.258 289.703 131.093 289.758 131.687 290.711C131.689 290.709 133.091 295.084 126.85 298.7Z" fill="#E1E6E9"/>
<path d="M78.9617 325.209L57.9665 358.679C57.7042 359.15 57.8599 359.676 58.3138 359.855C58.5923 359.965 58.9333 359.922 59.2197 359.74L64.5637 356.35C65.5915 355.697 66.5016 354.869 67.2378 353.915L107.954 306.046L78.9617 325.209Z" fill="#029BC5"/>
<path d="M25.9821 324.092C25.6319 323.972 25.2151 324.034 24.8633 324.258L20.4458 327.072C19.8439 327.455 19.604 328.191 19.9099 328.717C19.9682 328.817 20.0439 328.905 20.1346 328.977L32.5114 338.89L45.5244 330.762L25.9821 324.092Z" fill="#029BC5"/>
<path d="M36.6599 340.677L29.9985 350.006C29.9008 350.14 29.9238 350.308 30.0497 350.382C30.1406 350.435 30.2646 350.425 30.3654 350.358L34.4936 347.742C34.5257 347.721 34.5547 347.696 34.5787 347.667L44.3123 335.832L36.6599 340.677Z" fill="#029BC5"/>
<path d="M124.697 288.763C123.542 288.578 122.345 288.538 121.132 288.645C119.951 290.296 119.196 292.151 118.943 294.024C118.924 294.4 119.228 294.671 119.621 294.629C119.743 294.616 119.864 294.573 119.973 294.504L127.581 289.66C126.692 289.221 125.721 288.919 124.697 288.763Z" fill="#029BC5"/>
<path d="M108.118 297.671L113.085 294.534L117.711 302.403L112.744 305.54L108.118 297.671Z" fill="#D5D6DB"/>
<path d="M104.992 300.783C104.393 301.163 104.154 301.891 104.458 302.411L104.95 303.253C105.274 303.76 106.013 303.849 106.602 303.452C107.161 303.074 107.387 302.387 107.117 301.88L106.625 301.038C106.321 300.519 105.59 300.405 104.992 300.783Z" fill="#3A556A"/>
<path d="M100.527 303.556C99.9289 303.935 99.6896 304.664 99.9935 305.184L100.486 306.026C100.81 306.532 101.549 306.621 102.137 306.224C102.697 305.847 102.922 305.16 102.653 304.653L102.16 303.811C101.857 303.292 101.126 303.178 100.527 303.556Z" fill="#3A556A"/>
<path d="M96.0618 306.329C95.4639 306.709 95.2255 307.437 95.5292 307.956L96.0215 308.798C96.3453 309.304 97.0846 309.394 97.6729 308.997C98.2327 308.619 98.4581 307.932 98.1884 307.425L97.696 306.583C97.3922 306.064 96.6606 305.95 96.0618 306.329Z" fill="#3A556A"/>
<path d="M91.5975 309.102C90.9996 309.481 90.7612 310.209 91.0648 310.728L91.5571 311.57C91.881 312.077 92.6202 312.166 93.2085 311.769C93.7683 311.391 93.9938 310.705 93.724 310.198L93.2317 309.356C92.9276 308.836 92.196 308.722 91.5975 309.102Z" fill="#3A556A"/>
<path d="M87.1337 311.874C86.5355 312.254 86.297 312.982 86.6008 313.502L87.0934 314.344C87.397 314.863 88.1283 314.977 88.7267 314.598C89.325 314.219 89.5639 313.491 89.2603 312.972L88.7677 312.129C88.4648 311.61 87.7338 311.495 87.135 311.874C87.1345 311.874 87.1342 311.874 87.1337 311.874Z" fill="#3A556A"/>
<path d="M82.6689 314.647C82.0707 315.027 81.8321 315.755 82.1359 316.274L82.6285 317.117C82.9322 317.636 83.6635 317.75 84.2618 317.371C84.8602 316.992 85.0991 316.263 84.7954 315.744L84.3028 314.902C83.9999 314.382 83.2689 314.268 82.6702 314.646C82.6697 314.646 82.6691 314.647 82.6689 314.647Z" fill="#3A556A"/>
<path d="M78.2045 317.419C77.6063 317.799 77.3678 318.527 77.6716 319.047L78.1642 319.889C78.4686 320.408 79.2002 320.52 79.7979 320.141C80.3946 319.762 80.633 319.035 80.3308 318.517L79.8382 317.675C79.5346 317.155 78.8034 317.041 78.2045 317.419Z" fill="#3A556A"/>
<path d="M73.7402 320.192C73.1419 320.572 72.9034 321.3 73.2072 321.819L73.6998 322.662C74.0042 323.18 74.7358 323.293 75.3336 322.914C75.9303 322.535 76.1687 321.808 75.8664 321.289L75.3738 320.447C75.0703 319.927 74.339 319.813 73.7402 320.192Z" fill="#3A556A"/>
<path d="M69.2758 322.964C68.6776 323.344 68.4391 324.072 68.7429 324.592L69.2354 325.434C69.5399 325.953 70.2715 326.065 70.8692 325.686C71.4659 325.307 71.7043 324.58 71.402 324.062L70.9095 323.219C70.6057 322.7 69.8744 322.586 69.2758 322.964Z" fill="#3A556A"/>
<path d="M64.81 325.737C64.2116 326.116 63.9727 326.845 64.2764 327.364L64.277 327.365L64.7696 328.207C65.0741 328.726 65.8057 328.839 66.4034 328.459C67.0001 328.08 67.2385 327.354 66.9362 326.835L66.4436 325.993C66.1401 325.473 65.4089 325.359 64.81 325.737Z" fill="#3A556A"/>
<path d="M60.3466 328.509C59.7483 328.888 59.5094 329.616 59.813 330.136L59.8137 330.137L60.3063 330.979C60.6107 331.498 61.3423 331.61 61.94 331.231C62.5368 330.852 62.7752 330.125 62.4729 329.607L61.9803 328.764C61.6765 328.245 60.9453 328.131 60.3466 328.509Z" fill="#3A556A"/>
<path d="M200.744 321.275C199.801 321.486 198.883 321.877 198.046 322.424C195.866 323.813 194.598 325.796 195.214 326.852C195.829 327.908 198.095 327.638 200.275 326.249C201.123 325.722 201.877 325.048 202.489 324.269C202.773 323.893 202.824 323.424 202.619 323.074L201.82 321.701C201.616 321.35 201.194 321.183 200.744 321.275Z" fill="#D5D6DB"/>
<path d="M195.278 302.54C194.594 302.693 193.928 302.977 193.321 303.373C191.741 304.38 190.821 305.818 191.267 306.583C191.713 307.349 193.357 307.153 194.937 306.146C195.552 305.763 196.098 305.275 196.542 304.71C196.748 304.437 196.785 304.097 196.636 303.843L196.057 302.85C195.91 302.595 195.604 302.473 195.278 302.54Z" fill="#D5D6DB"/>
<path d="M186.38 303.325C186.228 303.308 186.066 303.348 185.925 303.438L182.213 305.804C181.903 306.001 181.778 306.381 181.936 306.652C181.972 306.715 182.021 306.768 182.081 306.809L191.23 313.114L203.608 305.226L186.38 303.325Z" fill="#029BC5"/>
<path d="M225.51 302.432L191.824 323.638L171.895 331.569L161.732 333.589L160.614 331.689L216.762 297.022C218.435 295.984 220.299 295.348 222.165 295.176C222.983 295.105 223.79 295.132 224.568 295.257C225.258 295.361 225.912 295.563 226.512 295.856C227.181 296.188 228.454 296.226 228.867 296.887C228.868 296.886 229.841 299.922 225.51 302.432Z" fill="#E1E6E9"/>
<path d="M192.276 320.832L177.704 344.063C177.522 344.389 177.63 344.755 177.945 344.879C178.138 344.955 178.375 344.925 178.573 344.799L182.283 342.446C182.996 341.993 183.628 341.418 184.139 340.756L212.4 307.532L192.276 320.832Z" fill="#029BC5"/>
<path d="M155.503 320.057C155.26 319.974 154.971 320.017 154.727 320.173L151.661 322.126C151.243 322.392 151.076 322.903 151.289 323.268C151.329 323.337 151.382 323.398 151.445 323.448L160.035 330.328L169.067 324.686L155.503 320.057Z" fill="#029BC5"/>
<path d="M162.915 331.568L158.291 338.043C158.224 338.136 158.24 338.253 158.327 338.304C158.39 338.341 158.476 338.334 158.546 338.287L161.411 336.472C161.434 336.458 161.454 336.44 161.471 336.42L168.226 328.206L162.915 331.568Z" fill="#029BC5"/>
<path d="M224.017 295.536C223.215 295.407 222.384 295.38 221.542 295.454C220.723 296.6 220.199 297.887 220.023 299.187C220.01 299.448 220.221 299.636 220.493 299.607C220.578 299.598 220.662 299.568 220.738 299.52L226.019 296.158C225.401 295.854 224.727 295.644 224.017 295.536Z" fill="#029BC5"/>
<path d="M212.511 301.719L215.958 299.541L219.169 305.003L215.722 307.18L212.511 301.719Z" fill="#D5D6DB"/>
<path d="M210.337 303.879C209.921 304.142 209.755 304.648 209.966 305.009L210.308 305.593C210.533 305.944 211.046 306.006 211.454 305.731C211.843 305.469 211.999 304.992 211.812 304.64L211.47 304.056C211.26 303.695 210.752 303.616 210.337 303.879Z" fill="#3A556A"/>
<path d="M207.235 305.803C206.819 306.066 206.653 306.572 206.864 306.933L207.206 307.517C207.431 307.869 207.944 307.931 208.352 307.655C208.741 307.393 208.897 306.916 208.71 306.565L208.368 305.98C208.157 305.62 207.65 305.541 207.235 305.803Z" fill="#3A556A"/>
<path d="M204.143 307.728C203.728 307.992 203.563 308.497 203.773 308.857L204.115 309.442C204.34 309.793 204.853 309.855 205.261 309.58C205.65 309.317 205.806 308.841 205.619 308.489L205.277 307.904C205.067 307.544 204.559 307.465 204.143 307.728Z" fill="#3A556A"/>
<path d="M201.041 309.652C200.626 309.916 200.461 310.421 200.671 310.781L201.013 311.366C201.238 311.717 201.751 311.779 202.159 311.504C202.548 311.242 202.704 310.765 202.517 310.413L202.175 309.829C201.964 309.468 201.457 309.389 201.041 309.652Z" fill="#3A556A"/>
<path d="M197.943 311.577C197.528 311.84 197.363 312.346 197.573 312.706L197.915 313.291C198.126 313.651 198.634 313.73 199.049 313.467C199.464 313.204 199.63 312.699 199.419 312.338L199.077 311.754C198.867 311.393 198.36 311.314 197.944 311.576C197.944 311.576 197.944 311.577 197.943 311.577Z" fill="#3A556A"/>
<path d="M194.843 313.501C194.428 313.765 194.262 314.27 194.473 314.631L194.815 315.215C195.026 315.576 195.533 315.655 195.948 315.392C196.364 315.129 196.53 314.623 196.319 314.263L195.977 313.678C195.767 313.317 195.259 313.238 194.844 313.501C194.843 313.501 194.843 313.501 194.843 313.501Z" fill="#3A556A"/>
<path d="M191.742 315.426C191.327 315.689 191.161 316.195 191.372 316.555L191.714 317.14C191.925 317.5 192.433 317.578 192.848 317.315C193.262 317.052 193.428 316.547 193.218 316.187L192.876 315.603C192.665 315.242 192.158 315.163 191.742 315.426Z" fill="#3A556A"/>
<path d="M188.651 317.35C188.236 317.613 188.071 318.119 188.281 318.479L188.623 319.064C188.835 319.424 189.342 319.502 189.757 319.239C190.171 318.976 190.337 318.472 190.127 318.112L189.785 317.527C189.575 317.166 189.067 317.087 188.651 317.35Z" fill="#3A556A"/>
<path d="M185.544 319.274C185.129 319.538 184.963 320.043 185.174 320.404L185.516 320.988C185.727 321.348 186.235 321.427 186.65 321.163C187.064 320.9 187.23 320.396 187.02 320.036L186.678 319.451C186.467 319.091 185.959 319.011 185.544 319.274Z" fill="#3A556A"/>
<path d="M182.449 321.199C182.034 321.462 181.868 321.967 182.079 322.328L182.079 322.329L182.421 322.913C182.632 323.273 183.14 323.351 183.555 323.088C183.969 322.825 184.135 322.321 183.925 321.961L183.583 321.376C183.372 321.015 182.865 320.936 182.449 321.199Z" fill="#3A556A"/>
<path d="M179.349 323.123C178.933 323.386 178.768 323.891 178.978 324.252L178.979 324.252L179.321 324.837C179.532 325.197 180.04 325.275 180.455 325.012C180.869 324.749 181.034 324.245 180.824 323.885L180.483 323.3C180.272 322.939 179.764 322.86 179.349 323.123Z" fill="#3A556A"/>
<path d="M154.354 477.735C152.512 478.147 150.718 478.911 149.084 479.979C144.826 482.692 142.349 486.565 143.551 488.628C144.754 490.692 149.18 490.164 153.438 487.451C155.094 486.421 156.566 485.105 157.762 483.584C158.317 482.849 158.416 481.933 158.016 481.249L156.454 478.568C156.057 477.881 155.232 477.555 154.354 477.735Z" fill="#D5D6DB"/>
<path d="M143.67 441.14C142.335 441.439 141.034 441.994 139.849 442.768C136.762 444.735 134.965 447.543 135.836 449.038C136.707 450.533 139.918 450.15 143.004 448.183C144.205 447.436 145.272 446.481 146.14 445.378C146.541 444.846 146.613 444.182 146.323 443.686L145.192 441.745C144.905 441.247 144.307 441.01 143.67 441.14Z" fill="#D5D6DB"/>
<path d="M126.29 442.672C125.993 442.639 125.676 442.718 125.401 442.894L118.15 447.514C117.544 447.9 117.301 448.642 117.609 449.172C117.679 449.294 117.776 449.397 117.892 449.477L135.763 461.794L159.939 446.387L126.29 442.672Z" fill="#029BC5"/>
<path d="M202.741 440.931L136.947 482.35L98.0222 497.839L78.1707 501.785L75.9868 498.075L185.655 430.363C188.923 428.336 192.564 427.093 196.209 426.758C197.805 426.619 199.382 426.673 200.902 426.915C202.249 427.119 203.527 427.513 204.698 428.086C206.005 428.734 208.492 428.809 209.298 430.1C209.301 430.098 211.201 436.029 202.741 440.931Z" fill="#E1E6E9"/>
<path d="M137.819 476.87L109.356 522.245C109.001 522.882 109.212 523.596 109.827 523.839C110.205 523.988 110.667 523.929 111.055 523.682L118.3 519.086C119.694 518.202 120.927 517.079 121.925 515.786L177.124 450.891L137.819 476.87Z" fill="#029BC5"/>
<path d="M66.0007 475.354C65.5259 475.192 64.9609 475.276 64.4839 475.58L58.4952 479.394C57.6792 479.913 57.3541 480.912 57.7687 481.624C57.8477 481.76 57.9504 481.879 58.0734 481.977L74.8523 495.415L92.4938 484.396L66.0007 475.354Z" fill="#029BC5"/>
<path d="M80.4825 497.838L71.4517 510.486C71.3193 510.668 71.3504 510.896 71.5212 510.995C71.6443 511.067 71.8124 511.054 71.9491 510.963L77.5457 507.416C77.5891 507.389 77.6285 507.354 77.661 507.315L90.8566 491.271L80.4825 497.838Z" fill="#029BC5"/>
<path d="M199.809 427.46C198.244 427.209 196.62 427.155 194.976 427.3C193.375 429.538 192.352 432.052 192.008 434.592C191.983 435.102 192.394 435.47 192.927 435.412C193.093 435.394 193.257 435.336 193.405 435.243L203.719 428.676C202.513 428.081 201.197 427.672 199.809 427.46Z" fill="#029BC5"/>
<path d="M177.35 439.537L184.084 435.284L190.356 445.952L183.622 450.205L177.35 439.537Z" fill="#D5D6DB"/>
<path d="M173.096 443.756C172.284 444.27 171.96 445.258 172.372 445.962L173.039 447.104C173.478 447.79 174.481 447.911 175.278 447.373C176.037 446.861 176.343 445.93 175.977 445.243L175.309 444.102C174.898 443.398 173.907 443.243 173.096 443.756Z" fill="#3A556A"/>
<path d="M167.04 447.514C166.229 448.028 165.905 449.016 166.317 449.721L166.984 450.862C167.423 451.549 168.425 451.67 169.223 451.132C169.982 450.62 170.287 449.689 169.922 449.002L169.254 447.86C168.842 447.156 167.852 447.001 167.04 447.514Z" fill="#3A556A"/>
<path d="M160.994 451.274C160.184 451.789 159.861 452.776 160.272 453.48L160.94 454.621C161.379 455.308 162.381 455.428 163.178 454.891C163.937 454.378 164.243 453.447 163.877 452.76L163.21 451.619C162.798 450.914 161.806 450.76 160.994 451.274Z" fill="#3A556A"/>
<path d="M154.939 455.033C154.129 455.547 153.805 456.534 154.217 457.238L154.884 458.38C155.323 459.066 156.326 459.187 157.123 458.649C157.882 458.137 158.188 457.206 157.822 456.519L157.155 455.377C156.742 454.673 155.751 454.519 154.939 455.033Z" fill="#3A556A"/>
<path d="M148.889 458.791C148.078 459.306 147.754 460.294 148.166 460.998L148.834 462.14C149.246 462.844 150.237 462.998 151.048 462.484C151.859 461.97 152.183 460.983 151.772 460.279L151.104 459.137C150.693 458.433 149.702 458.277 148.89 458.79C148.89 458.791 148.889 458.791 148.889 458.791Z" fill="#3A556A"/>
<path d="M142.835 462.55C142.024 463.065 141.7 464.052 142.112 464.756L142.78 465.898C143.192 466.602 144.183 466.756 144.994 466.243C145.805 465.729 146.129 464.742 145.717 464.038L145.05 462.896C144.639 462.191 143.648 462.036 142.836 462.549C142.836 462.549 142.835 462.55 142.835 462.55Z" fill="#3A556A"/>
<path d="M136.781 466.309C135.97 466.824 135.646 467.811 136.058 468.515L136.726 469.657C137.139 470.36 138.131 470.513 138.941 469.998C139.75 469.485 140.073 468.5 139.663 467.797L138.995 466.655C138.584 465.95 137.593 465.795 136.781 466.309Z" fill="#3A556A"/>
<path d="M130.737 470.067C129.926 470.582 129.602 471.569 130.014 472.274L130.682 473.416C131.095 474.119 132.087 474.272 132.897 473.757C133.706 473.244 134.029 472.258 133.619 471.555L132.952 470.413C132.54 469.709 131.549 469.554 130.737 470.067Z" fill="#3A556A"/>
<path d="M124.676 473.826C123.865 474.341 123.541 475.328 123.953 476.032L124.621 477.174C125.034 477.877 126.026 478.03 126.836 477.516C127.645 477.002 127.968 476.017 127.558 475.314L126.891 474.172C126.479 473.468 125.487 473.313 124.676 473.826Z" fill="#3A556A"/>
<path d="M118.628 477.586C117.817 478.099 117.493 479.087 117.905 479.791L117.905 479.792L118.573 480.934C118.986 481.637 119.978 481.79 120.788 481.275C121.597 480.762 121.92 479.777 121.51 479.074L120.843 477.932C120.431 477.227 119.44 477.072 118.628 477.586Z" fill="#3A556A"/>
<path d="M112.574 481.343C111.763 481.857 111.439 482.844 111.85 483.548L111.851 483.549L112.519 484.691C112.932 485.394 113.924 485.547 114.734 485.033C115.543 484.519 115.866 483.534 115.456 482.831L114.789 481.689C114.377 480.985 113.385 480.83 112.574 481.343Z" fill="#3A556A"/>
</g>
<rect x="-96" y="-328" width="600" height="600" rx="300" fill="#DF6951"/>
<rect x="-21" y="-253" width="450" height="450" rx="225" fill="white"/>
</g>
<defs>
<clipPath id="clip0_2736_1422">
<rect width="694" height="894" fill="white" transform="translate(-96 -304)"/>
</clipPath>
<clipPath id="clip1_2736_1422">
<rect x="-173" y="-28" width="535" height="535" rx="267.5" fill="white"/>
</clipPath>
</defs>
</svg>
